<?xml version="1.0" encoding="utf-8"?>
<!-- Generator: Adobe Illustrator 19.0.1, SVG Export Plug-In . SVG Version: 6.00 Build 0)  -->
<svg version="1.1" id="Слой_1" xmlns="http://www.w3.org/2000/svg" xmlns:xlink="http://www.w3.org/1999/xlink" x="0px" y="0px"
	 width="515px" height="100px" viewBox="232.5 -51 515 100" style="enable-background:new 232.5 -51 515 100;" xml:space="preserve"
	>
<style type="text/css">
	.st0{fill:#2C1812;}
	.st1{fill:none;}
	.st2{fill:#FFFFFF;}
</style>
<path class="st0" d="M250.7,22.7c-3.6,0-12.7-1.2-15.1-5c5.1,0.6,10.2,1,15.2,1s10-0.4,15-1C263.3,21.4,254.3,22.7,250.7,22.7z"/>
<path class="st0" d="M235.2,16.8c-0.1-0.4-0.2-0.6-0.2-1h31.5c0,0.4-0.1,0.7-0.2,1c-5.1,0.7-10.4,1.1-15.5,1.1
	C245.6,17.8,240.4,17.5,235.2,16.8z"/>
<path class="st0" d="M313.1,22.7c-3.6,0-12.7-1.2-15.1-5c5.1,0.6,10.2,1,15.2,1s10-0.4,15-1C325.8,21.4,316.7,22.7,313.1,22.7z"/>
<path class="st0" d="M297.5,16.8c-0.1-0.4-0.2-0.6-0.2-1h31.5c0,0.4-0.1,0.7-0.2,1c-5.1,0.7-10.4,1.1-15.5,1.1
	C308,17.8,302.8,17.5,297.5,16.8z"/>
<path class="st0" d="M287-13.8l9.4,49c-0.4-0.2-0.7-0.4-1.1-0.6c-4.7-2.9-6.7-19.8-7.3-24.9c-0.6-5.5-1-11-1.1-16.5c0-2,0-4.2,0-6.2
	C287-13.2,287-13.5,287-13.8L287-13.8z M267.6,35.3l9.5-49.3c0,0.4,0,0.7,0.1,1c0.1,2,0.1,4.2,0.1,6.2c-0.1,5.5-0.4,11.1-1,16.5
	c-0.5,5.2-2.6,21.9-7.3,24.9C268.4,34.9,268,35.2,267.6,35.3L267.6,35.3z M279-28.6c-1-1.9-1.9-4.1-2.4-5.7c1.7-0.4,3.5-0.7,5.4-0.7
	s3.7,0.3,5.7,0.8c-0.5,1.6-1.4,3.8-2.4,5.6C283.1-28.7,281-28.7,279-28.6L279-28.6z M276.1-36.5c0.1-3.2,2.7-5.8,5.9-5.8
	c3.3,0,5.9,2.6,5.9,5.8c-2-0.5-4.1-0.8-6.1-0.8C279.9-37.3,278-37,276.1-36.5z"/>
<path class="st0" d="M243.8,9.1c0.3,1.2,0.6,1.9,1.1,2.7c1.1,1.2,3.5,2.1,5.8,1.9c3.5-0.3,5.2-3.5,3.6-6.5c-0.9-1.8-3.4-3-5-3.8
	c-2.9-1.4-6.1-3.5-6.1-7.2c0-1.4,0.4-2.7,1-3.7c0.7-1.1,1.6-1.9,2.9-2.4c3.5-1.5,7.2-0.8,10,0.4v4.2l-1.2,0.5l0,0
	c-0.3-1-0.5-1.7-1-2.3c-1.9-2.4-8.3-2.2-8.3,2c0,1.8,0.6,2.9,1.9,4c0.7,0.5,1.7,1.2,3,1.8c3.4,1.7,6.6,3.6,6.6,7.8
	c0,4.8-3.2,7.3-7.8,7.3c-2.7,0.1-5.6-0.7-7.8-1.4v-5L243.8,9.1z"/>
<rect x="250.3" y="-12.4" class="st0" width="1" height="1"/>
<path class="st0" d="M316,15.8v-1c0.6-0.1,1.1-0.3,1.3-0.4c0.3-0.2,0.5-0.4,0.6-0.6c0.2-0.3,0.2-0.6,0.2-1.2c0-0.4,0-0.9-0.2-1.4
	c-0.1-0.5-0.3-1.1-0.4-1.7L316.9,7h-8.1l-0.6,1.9c-0.3,1-0.5,1.7-0.6,2.1c-0.1,0.4-0.2,1-0.2,1.3c0,0.8,0.2,1.3,0.5,1.7
	c0.4,0.4,0.9,0.6,1.7,0.7v1H302v-1c0.6-0.1,1.2-0.5,1.8-1.2c0.5-0.7,1-1.8,1.4-3.1l7.4-21.2h2.8l6,21.4c0.3,1,0.5,1.8,0.7,2.3
	s0.4,1,0.8,1.2c0.3,0.3,0.7,0.5,1.2,0.6v1L316,15.8L316,15.8z M309.2,5.4h7.4L313.3-7L309.2,5.4z"/>
<rect x="313.6" y="-12.4" class="st0" width="1" height="1"/>
<path class="st0" d="M282.8,41.4h15h2.4h0.1v-4.1c-1.8-0.2-3.6-0.8-5.3-1.9c-8.1-5.1-9.6-46.4-8.3-52.1c0.5-2,1.9-5.6,2-7.1
	c1.1,0.2,2.3,0.5,3.4,0.8c4.4,1.2,7.3,3.3,10.3,5.1c3,2,5.8,4,9.4,4.5c1.1,0.2,2.2,0.3,3.5,0.2l1.9-2.8l0,0l0.4-0.6l-0.9-0.6
	l-0.5,0.4c-3.1,2.4-9.6-2.5-11.7-4c-3.1-2-6.3-4.2-11.2-5.6c-1.5-0.4-3.1-0.8-4.8-1.1c-3.7-0.5-8.7-0.5-12.4,0
	c-1.7,0.3-3.3,0.6-4.8,1.1c-5,1.4-8.1,3.5-11.2,5.6c-2.6,1.7-8.7,6.4-11.8,4l-0.6-0.4l-0.8,0.6l0.3,0.6l0,0l1.9,2.8
	c1.2,0.1,2.4,0,3.5-0.2c3.6-0.5,6.4-2.5,9.4-4.5c2.8-1.9,5.8-3.9,10.3-5.1c1.2-0.4,2.3-0.6,3.5-0.8c0.2,1.6,1.5,5,2,7.1
	c1.4,5.5,0.1,46.8-8.3,52.1c-1.7,1.1-3.5,1.7-5.3,1.9v4.1h2.4H282.8z"/>
<g>
	<rect x="331.9" y="-6.5" class="st1" width="416.8" height="33.8"/>
	<path class="st2" d="M332.9,3.6l1.2-1.7c1.1,0.9,2.3,1.6,3.6,2c1.2,0.5,2.5,0.7,3.7,0.7c1.5,0,2.7-0.3,3.6-1
		c0.9-0.7,1.4-1.5,1.4-2.4c0-0.8-0.3-1.4-1-2c-0.7-0.5-1.6-0.8-2.8-0.9c-0.3,0-0.7-0.1-1.2-0.1c-2.7-0.2-4.5-0.5-5.4-0.9
		c-0.8-0.4-1.3-0.8-1.7-1.4s-0.6-1.2-0.6-1.9c0-1.3,0.6-2.4,1.7-3.2s2.7-1.3,4.5-1.3c1.3,0,2.7,0.2,4,0.7s2.6,1.1,3.7,2l-1.2,1.7
		c-1-0.8-2-1.4-3.1-1.8c-1.1-0.4-2.2-0.6-3.4-0.6c-1.2,0-2.2,0.2-3,0.7s-1.2,1.1-1.2,1.8c0,0.3,0.1,0.5,0.2,0.8s0.3,0.5,0.6,0.7
		c0.7,0.5,2.1,0.8,4.3,1c1,0.1,1.8,0.1,2.4,0.2c1.6,0.2,2.9,0.7,3.9,1.6s1.4,1.9,1.4,3.2c0,1.5-0.7,2.8-2,3.7
		c-1.3,0.9-3,1.5-5.2,1.5c-1.6,0-3.1-0.2-4.5-0.7C335.5,5.3,334.2,4.5,332.9,3.6z"/>
	<path class="st2" d="M352.4,6v-16.2h2V4.1H365V6H352.4z"/>
	<path class="st2" d="M365,6l7.9-16.2h1.7l8,16.2h-2.2l-2.2-4.4h-8.9L367.2,6H365z M370.2-0.2h7.1l-3.6-7.2L370.2-0.2z"/>
	<path class="st2" d="M390,6h-1.3l-7.8-16.2h2.2l6.2,13l6.2-13h2.2L390,6z"/>
	<path class="st2" d="M400,6v-16.3h2V6H400z"/>
	<path class="st2" d="M419.8,0.9l1.6,1.2c-0.7,1.4-1.8,2.5-3,3.2c-1.2,0.7-2.8,1.1-4.4,1.1c-2.4,0-4.4-0.8-6-2.4
		c-1.6-1.6-2.4-3.6-2.4-6.1s0.8-4.5,2.4-6.1c1.6-1.6,3.6-2.4,6-2.4c1.5,0,2.9,0.3,4.1,1s2.2,1.6,3,2.8l-1.7,1.2
		c-0.5-1-1.2-1.7-2.2-2.3s-2-0.8-3.2-0.8c-1.8,0-3.3,0.6-4.5,1.9s-1.8,2.8-1.8,4.7s0.6,3.5,1.8,4.7s2.7,1.9,4.5,1.9
		c1.3,0,2.4-0.3,3.4-0.9S419.2,2.1,419.8,0.9z"/>
	<path class="st2" d="M437.9,6V-8.3h-6.8v-1.9h15.6v1.9h-6.8V6H437.9z"/>
	<path class="st2" d="M447.5,6v-16.2h9.3c1.6,0,2.8,0.4,3.7,1.2s1.3,1.9,1.3,3.3c0,1.2-0.4,2.2-1.1,3s-1.6,1.4-2.8,1.6l4,7.1h-2.2
		l-4-7.1h-6.3V6H447.5z M449.5-3h7.1c1,0,1.8-0.2,2.3-0.7s0.8-1.1,0.8-2c0-0.8-0.3-1.5-0.8-2s-1.3-0.7-2.2-0.7h-7.2V-3L449.5-3z"/>
	<path class="st2" d="M467.1-10.2V0.3c0,1.7,0.3,2.8,0.9,3.4c0.6,0.6,1.9,0.9,3.7,0.9c1.8,0,3.1-0.3,3.7-0.9s0.9-1.7,0.9-3.4v-10.5
		h2v11c0,2-0.5,3.4-1.6,4.3c-1.1,0.9-2.7,1.3-5.1,1.3s-4.1-0.4-5.1-1.3s-1.6-2.3-1.6-4.3v-11H467.1z"/>
	<path class="st2" d="M495.7,0.9l1.6,1.2c-0.7,1.4-1.8,2.5-3,3.2c-1.2,0.7-2.8,1.1-4.4,1.1c-2.4,0-4.4-0.8-6-2.4s-2.4-3.6-2.4-6.1
		s0.8-4.5,2.4-6.1s3.6-2.4,6-2.4c1.5,0,2.9,0.3,4.1,1s2.2,1.6,3,2.8l-1.7,1.2c-0.5-1-1.2-1.7-2.2-2.3c-1-0.6-2-0.8-3.2-0.8
		c-1.8,0-3.3,0.6-4.5,1.9s-1.8,2.8-1.8,4.7s0.6,3.5,1.8,4.7s2.7,1.9,4.5,1.9c1.3,0,2.4-0.3,3.4-0.9S495.1,2.1,495.7,0.9z"/>
	<path class="st2" d="M501,6v-16.2h2v8.1l9.3-8.1h2.6l-6.5,5.8L515.9,6h-2.4L507-3.1l-3.9,3.3V6H501z"/>
	<path class="st2" d="M518.5,6v-16.2h12.7v1.9h-10.7v4.7h6.5v1.9h-6.5v5.8h11.4V6H518.5z"/>
	<path class="st2" d="M534.8,6v-16.2h9.3c1.6,0,2.8,0.4,3.7,1.2s1.3,1.9,1.3,3.3c0,1.2-0.4,2.2-1.1,3c-0.7,0.8-1.6,1.4-2.8,1.6
		l4,7.1H547l-4-7.1h-6.3V6H534.8z M536.8-3h7.1c1,0,1.8-0.2,2.3-0.7s0.8-1.1,0.8-2c0-0.8-0.3-1.5-0.8-2s-1.3-0.7-2.2-0.7h-7.2
		L536.8-3L536.8-3z"/>
	<path class="st2" d="M551.3,3.6l1.2-1.7c1.1,0.9,2.3,1.6,3.6,2c1.2,0.5,2.5,0.7,3.7,0.7c1.5,0,2.7-0.3,3.6-1s1.4-1.5,1.4-2.4
		c0-0.8-0.3-1.4-1-2c-0.7-0.5-1.6-0.8-2.8-0.9c-0.3,0-0.7-0.1-1.2-0.1c-2.7-0.2-4.5-0.5-5.4-0.9c-0.8-0.4-1.3-0.8-1.7-1.4
		S552-5.3,552-6c0-1.3,0.6-2.4,1.7-3.2s2.7-1.3,4.5-1.3c1.3,0,2.7,0.2,4,0.7s2.6,1.1,3.7,2l-1.2,1.7c-1-0.8-2-1.4-3.1-1.8
		c-1.1-0.4-2.2-0.6-3.4-0.6s-2.2,0.2-3,0.7S554-6.7,554-6c0,0.3,0.1,0.5,0.2,0.8s0.3,0.5,0.6,0.7c0.7,0.5,2.1,0.8,4.3,1
		c1,0.1,1.8,0.1,2.4,0.2c1.6,0.2,2.9,0.7,3.9,1.6s1.4,1.9,1.4,3.2c0,1.5-0.7,2.8-2,3.7s-3,1.5-5.2,1.5c-1.6,0-3.1-0.2-4.5-0.7
		C553.9,5.3,552.5,4.5,551.3,3.6z"/>
	<path class="st2" d="M578.3,6l7.9-16.2h1.7l8,16.2h-2.2l-2.2-4.4h-8.9L580.5,6H578.3z M583.5-0.2h7.1L587-7.4L583.5-0.2z"/>
	<path class="st2" d="M596.8,3.6l1.2-1.7c1.1,0.9,2.3,1.6,3.6,2c1.2,0.5,2.5,0.7,3.7,0.7c1.5,0,2.7-0.3,3.6-1s1.4-1.5,1.4-2.4
		c0-0.8-0.3-1.4-1-2c-0.7-0.5-1.6-0.8-2.8-0.9c-0.3,0-0.7-0.1-1.2-0.1c-2.7-0.2-4.5-0.5-5.4-0.9c-0.8-0.4-1.3-0.8-1.7-1.4
		s-0.6-1.2-0.6-1.9c0-1.3,0.6-2.4,1.7-3.2c1.1-0.8,2.7-1.3,4.5-1.3c1.3,0,2.7,0.2,4,0.7c1.3,0.5,2.6,1.1,3.7,2l-1.2,1.7
		c-1-0.8-2-1.4-3.1-1.8s-2.2-0.6-3.4-0.6c-1.2,0-2.2,0.2-3,0.7c-0.8,0.5-1.2,1.1-1.2,1.8c0,0.3,0.1,0.5,0.2,0.8
		c0.1,0.3,0.3,0.5,0.6,0.7c0.7,0.5,2.1,0.8,4.3,1c1,0.1,1.8,0.1,2.4,0.2c1.6,0.2,2.9,0.7,3.9,1.6s1.4,1.9,1.4,3.2
		c0,1.5-0.7,2.8-2,3.7c-1.3,0.9-3,1.5-5.2,1.5c-1.6,0-3.1-0.2-4.5-0.7C599.4,5.3,598.1,4.5,596.8,3.6z"/>
	<path class="st2" d="M614.8,3.6l1.2-1.7c1.1,0.9,2.3,1.6,3.6,2c1.2,0.5,2.5,0.7,3.7,0.7c1.5,0,2.7-0.3,3.6-1s1.4-1.5,1.4-2.4
		c0-0.8-0.3-1.4-1-2c-0.7-0.5-1.6-0.8-2.8-0.9c-0.3,0-0.7-0.1-1.2-0.1c-2.7-0.2-4.5-0.5-5.4-0.9c-0.8-0.4-1.3-0.8-1.7-1.4
		s-0.6-1.2-0.6-1.9c0-1.3,0.6-2.4,1.7-3.2c1.1-0.8,2.7-1.3,4.5-1.3c1.3,0,2.7,0.2,4,0.7c1.3,0.5,2.6,1.1,3.7,2l-1.2,1.7
		c-1-0.8-2-1.4-3.1-1.8s-2.2-0.6-3.4-0.6c-1.2,0-2.2,0.2-3,0.7c-0.8,0.5-1.2,1.1-1.2,1.8c0,0.3,0.1,0.5,0.2,0.8
		c0.1,0.3,0.3,0.5,0.6,0.7c0.7,0.5,2.1,0.8,4.3,1c1,0.1,1.8,0.1,2.4,0.2c1.6,0.2,2.9,0.7,3.9,1.6s1.4,1.9,1.4,3.2
		c0,1.5-0.7,2.8-2,3.7c-1.3,0.9-3,1.5-5.2,1.5c-1.6,0-3.1-0.2-4.5-0.7C617.3,5.3,616,4.5,614.8,3.6z"/>
	<path class="st2" d="M641.3,6.4c-2.4,0-4.4-0.8-6-2.4s-2.4-3.6-2.4-6.1s0.8-4.5,2.4-6.1s3.6-2.4,6-2.4s4.4,0.8,6,2.4
		s2.4,3.6,2.4,6.1s-0.8,4.5-2.4,6.1C645.7,5.6,643.7,6.4,641.3,6.4z M641.3,4.5c1.8,0,3.3-0.6,4.5-1.9s1.8-2.8,1.8-4.7
		s-0.6-3.5-1.8-4.7s-2.7-1.9-4.5-1.9s-3.3,0.6-4.5,1.9S635-3.9,635-2s0.6,3.5,1.8,4.7S639.5,4.5,641.3,4.5z"/>
	<path class="st2" d="M666.1,0.9l1.6,1.2c-0.7,1.4-1.8,2.5-3,3.2c-1.2,0.7-2.8,1.1-4.4,1.1c-2.4,0-4.4-0.8-6-2.4
		c-1.6-1.6-2.4-3.6-2.4-6.1s0.8-4.5,2.4-6.1c1.6-1.6,3.6-2.4,6-2.4c1.5,0,2.9,0.3,4.1,1s2.2,1.6,3,2.8l-1.7,1.2
		c-0.5-1-1.2-1.7-2.2-2.3s-2-0.8-3.2-0.8c-1.8,0-3.3,0.6-4.5,1.9S654-3.9,654-2s0.6,3.5,1.8,4.7s2.7,1.9,4.5,1.9
		c1.3,0,2.4-0.3,3.4-0.9S665.5,2.1,666.1,0.9z"/>
	<path class="st2" d="M671.4,6v-16.3h2V6H671.4z"/>
	<path class="st2" d="M675.8,6l7.9-16.2h1.7l8,16.2h-2.2L689,1.6h-8.9L678,6H675.8z M681-0.2h7.1l-3.6-7.2L681-0.2z"/>
	<path class="st2" d="M697.1,6V-8.3h-6.8v-1.9h15.6v1.9h-6.8V6H697.1z"/>
	<path class="st2" d="M706.8,6v-16.3h2V6H706.8z"/>
	<path class="st2" d="M720.8,6.4c-2.4,0-4.4-0.8-6-2.4s-2.4-3.6-2.4-6.1s0.8-4.5,2.4-6.1s3.6-2.4,6-2.4s4.4,0.8,6,2.4
		s2.4,3.6,2.4,6.1s-0.8,4.5-2.4,6.1C725.2,5.6,723.2,6.4,720.8,6.4z M720.8,4.5c1.8,0,3.3-0.6,4.5-1.9s1.8-2.8,1.8-4.7
		s-0.6-3.5-1.8-4.7s-2.7-1.9-4.5-1.9s-3.3,0.6-4.5,1.9s-1.8,2.8-1.8,4.7s0.6,3.5,1.8,4.7S719,4.5,720.8,4.5z"/>
	<path class="st2" d="M732.7,6v-16.2h1.1l10.5,12.1v-12.1h2V6h-1L734.8-6.1V6H732.7z"/>
</g>
</svg>
